<svg height='300px' width='300px'  fill="#000000" xmlns="http://www.w3.org/2000/svg" xmlns:xlink="http://www.w3.org/1999/xlink" version="1.1" x="0px" y="0px" viewBox="0 0 100 100" enable-background="new 0 0 100 100" xml:space="preserve"><path d="M39.5,21c0-4.142,3.358-7.5,7.5-7.5s7.5,3.358,7.5,7.5c0,4.142-3.358,7.5-7.5,7.5S39.5,25.142,39.5,21z"></path><path d="M91.472,77.246c-4.983-1.775-18.617-6.179-34.92-7.708l2.39-11.949c0.239-1.192-0.265-2.411-1.277-3.085l-7.329-4.885  l1.938-9.689l12.308,1.641c0.135,0.018,0.268,0.026,0.401,0.026c1.479,0,2.769-1.096,2.969-2.603  c0.22-1.642-0.935-3.152-2.577-3.371l-41.978-5.597c-1.622-0.217-3.151,0.933-3.371,2.577c-0.22,1.642,0.935,3.152,2.577,3.371  l12.091,1.612l-2.653,15.92c-0.16,0.957,0.152,1.929,0.838,2.615l4.799,4.799l-2.082,8.328C22.157,69.911,11.893,71.736,8,72.515  v10.971C12.803,84.446,27.302,87,45.5,87c20.935,0,39.891-6.083,45.971-8.247C92.179,78.501,92.179,77.498,91.472,77.246z   M41.833,69.036l2.077-8.308c0.255-1.022-0.044-2.104-0.79-2.849L39.242,54h6.85l6.573,4.381l-2.149,10.744  C47.602,68.996,45.559,68.967,41.833,69.036z"></path></svg>